HIERARCHY
ROOT hip
{
  OFFSET 0 0 0
  CHANNELS 6 Xposition Yposition Zposition Zrotation Yrotation Xrotation
  JOINT abdomen
  {
    OFFSET 0 20.6881 -0.73152
    CHANNELS 3 Zrotation Xrotation Yrotation
    JOINT chest
    {
      OFFSET 0 11.7043 -0.48768
      CHANNELS 3 Zrotation Xrotation Yrotation
      JOINT neck
      {
        OFFSET 0 22.1894 -2.19456
        CHANNELS 3 Zrotation Xrotation Yrotation
        JOINT head
        {
          OFFSET -0.24384 7.07133 1.2192
          CHANNELS 3 Zrotation Xrotation Yrotation
          JOINT leftEye
          {
            OFFSET 4.14528 8.04674 8.04672
            CHANNELS 3 Zrotation Xrotation Yrotation
            End Site
            {
              OFFSET 1 0 0
            }
          }
          JOINT rightEye
          {
            OFFSET -3.6576 8.04674 8.04672
            CHANNELS 3 Zrotation Xrotation Yrotation
            End Site
            {
              OFFSET 1 0 0
            }
          }
        }
      }
      JOINT rCollar
      {
        OFFSET -2.68224 19.2634 -4.8768
        CHANNELS 3 Zrotation Xrotation Yrotation
        JOINT rShldr
        {
          OFFSET -8.77824 -1.95073 1.46304
          CHANNELS 3 Zrotation Xrotation Yrotation
          JOINT rForeArm
          {
            OFFSET -28.1742 -1.7115 0.48768
            CHANNELS 3 Zrotation Xrotation Yrotation
            JOINT rHand
            {
              OFFSET -22.5879 0.773209 7.07136
              CHANNELS 3 Zrotation Xrotation Yrotation
              JOINT rThumb1
              {
                OFFSET -1.2192 -0.487915 3.41376
                CHANNELS 3 Zrotation Xrotation Yrotation
                JOINT rThumb2
                {
                  OFFSET -3.37035 -0.52449 3.41376
                  CHANNELS 3 Zrotation Xrotation Yrotation
                  End Site
                  {
                    OFFSET -1.78271 -1.18214 1.43049
                  }
                }
              }
              JOINT rIndex1
              {
                OFFSET -7.75947 0.938293 5.60832
                CHANNELS 3 Zrotation Xrotation Yrotation
                JOINT rIndex2
                {
                  OFFSET -2.54057 -0.884171 1.56538
                  CHANNELS 3 Zrotation Xrotation Yrotation
                  End Site
                  {
                    OFFSET -1.62519 -0.234802 1.16502
                  }
                }
              }
              JOINT rMid1
              {
                OFFSET -8.24714 1.18213 3.41376
                CHANNELS 3 Zrotation Xrotation Yrotation
                JOINT rMid2
                {
                  OFFSET -3.10165 -0.590103 1.0647
                  CHANNELS 3 Zrotation Xrotation Yrotation
                  End Site
                  {
                    OFFSET -2.48547 -0.328903 0.83742
                  }
                }
              }
              JOINT rRing1
              {
                OFFSET -8.82822 0.546677 1.51678
                CHANNELS 3 Zrotation Xrotation Yrotation
                JOINT rRing2
                {
                  OFFSET -2.60934 -0.819778 -0.0198488
                  CHANNELS 3 Zrotation Xrotation Yrotation
                  End Site
                  {
                    OFFSET -2.33842 -0.294052 0.168128
                  }
                }
              }
              JOINT rPinky1
              {
                OFFSET -8.27202 -0.0477905 -0.4584
                CHANNELS 3 Zrotation Xrotation Yrotation
                JOINT rPinky2
                {
                  OFFSET -1.82734 -0.647385 -0.700984
                  CHANNELS 3 Zrotation Xrotation Yrotation
                  End Site
                  {
                    OFFSET -1.69225 -0.51767 -0.607171
                  }
                }
              }
            }
          }
        }
      }
      JOINT lCollar
      {
        OFFSET 2.68224 19.2634 -4.8768
        CHANNELS 3 Zrotation Xrotation Yrotation
        JOINT lShldr
        {
          OFFSET 8.77824 -1.95073 1.46304
          CHANNELS 3 Zrotation Xrotation Yrotation
          JOINT lForeArm
          {
            OFFSET 28.1742 -1.7115 0.48768
            CHANNELS 3 Zrotation Xrotation Yrotation
            JOINT lHand
            {
              OFFSET 22.5879 0.773209 7.07136
              CHANNELS 3 Zrotation Xrotation Yrotation
              JOINT lThumb1
              {
                OFFSET 1.2192 -0.487915 3.41376
                CHANNELS 3 Zrotation Xrotation Yrotation
                JOINT lThumb2
                {
                  OFFSET 3.37035 -0.52449 3.41376
                  CHANNELS 3 Zrotation Xrotation Yrotation
                  End Site
                  {
                    OFFSET 1.78271 -1.18214 1.43049
                  }
                }
              }
              JOINT lIndex1
              {
                OFFSET 7.75947 0.938293 5.60832
                CHANNELS 3 Zrotation Xrotation Yrotation
                JOINT lIndex2
                {
                  OFFSET 2.54057 -0.884171 1.56538
                  CHANNELS 3 Zrotation Xrotation Yrotation
                  End Site
                  {
                    OFFSET 1.62519 -0.234802 1.16502
                  }
                }
              }
              JOINT lMid1
              {
                OFFSET 8.24714 1.18213 3.41376
                CHANNELS 3 Zrotation Xrotation Yrotation
                JOINT lMid2
                {
                  OFFSET 3.10165 -0.590103 1.0647
                  CHANNELS 3 Zrotation Xrotation Yrotation
                  End Site
                  {
                    OFFSET 2.48547 -0.328903 0.83742
                  }
                }
              }
              JOINT lRing1
              {
                OFFSET 8.82822 0.546677 1.51678
                CHANNELS 3 Zrotation Xrotation Yrotation
                JOINT lRing2
                {
                  OFFSET 2.60934 -0.819778 -0.0198488
                  CHANNELS 3 Zrotation Xrotation Yrotation
                  End Site
                  {
                    OFFSET 2.33842 -0.294052 0.168128
                  }
                }
              }
              JOINT lPinky1
              {
                OFFSET 8.27202 -0.0477905 -0.4584
                CHANNELS 3 Zrotation Xrotation Yrotation
                JOINT lPinky2
                {
                  OFFSET 1.82734 -0.647385 -0.700984
                  CHANNELS 3 Zrotation Xrotation Yrotation
                  End Site
                  {
                    OFFSET 1.69225 -0.51767 -0.607171
                  }
                }
              }
            }
          }
        }
      }
    }
  }
  JOINT rButtock
  {
    OFFSET -8.77824 4.35084 1.2192
    CHANNELS 3 Zrotation Xrotation Yrotation
    JOINT rThigh
    {
      OFFSET 0 -1.70687 -2.19456
      CHANNELS 3 Zrotation Xrotation Yrotation
      JOINT rShin
      {
        OFFSET 0 -36.8199 0.73152
        CHANNELS 3 Zrotation Xrotation Yrotation
        JOINT rFoot
        {
          OFFSET 0.73152 -45.1104 -5.12064
          CHANNELS 3 Zrotation Xrotation Yrotation
          End Site
          {
            OFFSET -1.1221 -3.69964 12.103
          }
        }
      }
    }
  }
  JOINT lButtock
  {
    OFFSET 8.77824 4.35084 1.2192
    CHANNELS 3 Zrotation Xrotation Yrotation
    JOINT lThigh
    {
      OFFSET 0 -1.70687 -2.19456
      CHANNELS 3 Zrotation Xrotation Yrotation
      JOINT lShin
      {
        OFFSET 0 -36.8199 0.73152
        CHANNELS 3 Zrotation Xrotation Yrotation
        JOINT lFoot
        {
          OFFSET -0.73152 -45.1104 -5.12064
          CHANNELS 3 Zrotation Xrotation Yrotation
          End Site
          {
            OFFSET 1.1221 -3.69964 12.103
          }
        }
      }
    }
  }
}
MOTION
Frames:	4
Frame Time:	0.00833333
-4.29834 79.4584 42.8497 -5.0007 8.9395 -11.3517 0.0593568 4.51235 1.45237 0.426382 -7.4084 0.381447 -6.49047 -2.67503 -4.19701 -2.95233 -53.6539 -7.96416 -0.0 0.0 0.0 -0.0 0.0 0.0 7.45182e-14 1.05748e-13 -1.09642e-14 36.9943 -13.1965 56.1436 -28.4162 -36.8099 78.3437 -0.375755 17.199 2.49285 8.15839e-10 -1.81047e-10 -6.66766e-10 1.40205e-09 -3.11622e-10 -1.16335e-09 8.15841e-10 -1.81043e-10 -6.66783e-10 7.73091 5.47488 0.417314 8.15838e-10 -1.81045e-10 -6.6677e-10 2.90554 0.965183 0.102902 8.15845e-10 -1.81045e-10 -6.66765e-10 10.2786 0.731801 0.0259123 8.15836e-10 -1.81044e-10 -6.6676e-10 2.22167 -0.733487 -0.20892 7.44478e-14 1.05759e-13 -1.11319e-14 -14.6283 20.0791 -90.5146 14.0751 -56.8318 -127.189 8.01992 -59.7174 13.9253 -3.45843e-10 -9.4421e-10 7.08859e-10 -6.26715e-10 -1.63376e-09 1.19967e-09 -3.45836e-10 -9.44195e-10 7.08875e-10 -7.73091 5.47488 -0.417314 -3.4584e-10 -9.44206e-10 7.08869e-10 -2.90554 0.965183 -0.102902 -3.45849e-10 -9.44207e-10 7.08861e-10 -10.2786 0.731801 -0.0259123 -3.45837e-10 -9.44207e-10 7.08852e-10 -2.22167 -0.733487 0.20892 -2.03217e-16 0.0 -3.88251e-19 -2.36048 9.0596 -5.96562 -0.10672 24.6268 0.529602 -2.78571 -22.2231 -6.64287 2.03217e-16 0.0 3.88251e-19 11.0918 -7.44311 -6.85846 0.333801 40.9785 -0.783785 -0.134815 -21.2102 0.176804
-4.33412 79.6473 42.9324 -5.0877 9.169 -11.4533 -0.191328 4.16343 1.40457 0.403858 -7.47936 0.361828 -6.39542 -3.10419 -4.14553 -3.75042 -53.0559 -8.19574 -0.0 0.0 0.0 -0.0 0.0 0.0 6.07559e-14 1.74678e-13 -9.87983e-14 37.8434 -12.836 55.9344 -28.3872 -37.3608 79.2796 -0.422675 18.1868 2.6461 1.3148e-09 -2.4497e-10 -9.13025e-10 2.25949e-09 -4.19699e-10 -1.59588e-09 1.31481e-09 -2.44968e-10 -9.1304e-10 7.73091 5.47488 0.417314 1.3148e-09 -2.44969e-10 -9.13027e-10 2.90554 0.965183 0.102902 1.31481e-09 -2.44969e-10 -9.13026e-10 10.2786 0.731801 0.0259123 1.3148e-09 -2.44969e-10 -9.13021e-10 2.22167 -0.733487 -0.20892 6.06872e-14 1.74686e-13 -9.89823e-14 -14.1964 20.5987 -90.8036 13.8169 -56.947 -127.708 7.70979 -59.071 13.5648 -5.29755e-10 -1.52582e-09 1.08654e-09 -9.60107e-10 -2.64186e-09 1.83843e-09 -5.29748e-10 -1.5258e-09 1.08656e-09 -7.73091 5.47488 -0.417314 -5.29753e-10 -1.52582e-09 1.08655e-09 -2.90554 0.965183 -0.102902 -5.2976e-10 -1.52582e-09 1.08654e-09 -10.2786 0.731801 -0.0259123 -5.29747e-10 -1.52582e-09 1.08653e-09 -2.22167 -0.733487 0.20892 -2.03217e-16 0.0 -3.88251e-19 -2.30148 9.44447 -6.17476 -0.103975 24.195 0.518855 -2.73191 -21.7317 -6.62905 2.03217e-16 0.0 3.88251e-19 11.233 -7.11533 -6.86911 0.323702 40.4532 -0.763373 -0.202375 -20.9731 0.014104
-4.37037 79.8153 42.9913 -5.1625 9.3472 -11.5196 -0.435304 3.86683 1.44113 0.359907 -7.49194 0.365446 -6.37056 -3.44437 -4.10353 -4.46511 -52.6692 -8.39618 -0.0 0.0 0.0 -0.0 0.0 0.0 5.80559e-14 1.92421e-13 -1.6688e-13 38.5739 -12.6064 55.7542 -28.3481 -37.815 80.0884 -0.469063 19.0936 2.78848 1.46724e-09 -2.57498e-10 -9.11903e-10 2.52241e-09 -4.40399e-10 -1.5959e-09 1.46725e-09 -2.57496e-10 -9.11916e-10 7.73091 5.47488 0.417314 1.46724e-09 -2.57497e-10 -9.11903e-10 2.90554 0.965183 0.102902 1.46725e-09 -2.57497e-10 -9.11905e-10 10.2786 0.731801 0.0259123 1.46724e-09 -2.57498e-10 -9.119e-10 2.22167 -0.733487 -0.20892 5.79884e-14 1.92426e-13 -1.67079e-13 -13.9156 20.9559 -91.0871 13.6069 -57.0377 -128.128 7.44367 -58.4908 13.2535 -7.07648e-10 -1.97333e-09 1.34068e-09 -1.27776e-09 -3.41295e-09 2.26538e-09 -7.07641e-10 -1.97331e-09 1.34071e-09 -7.73091 5.47488 -0.417314 -7.07646e-10 -1.97333e-09 1.34069e-09 -2.90554 0.965183 -0.102902 -7.07651e-10 -1.97333e-09 1.34069e-09 -10.2786 0.731801 -0.0259123 -7.07639e-10 -1.97333e-09 1.34068e-09 -2.22167 -0.733487 0.20892 -2.03217e-16 0.0 -3.88251e-19 -2.28077 9.71945 -6.36186 -0.102265 23.889 0.510859 -2.67891 -21.3643 -6.58893 2.03217e-16 0.0 3.88251e-19 11.2935 -6.87501 -6.9471 0.316082 40.0457 -0.748004 -0.244344 -20.8162 -0.0871826
-4.39445 79.9097 43.0139 -5.195 9.5071 -11.5592 -0.686298 3.59847 1.595 0.293167 -7.40909 0.401271 -6.4529 -3.66266 -4.07042 -5.08234 -52.565 -8.55071 -0.0 0.0 0.0 -0.0 0.0 0.0 7.26615e-14 1.32949e-13 -2.18487e-13 39.1665 -12.5332 55.602 -28.3101 -38.1898 80.7593 -0.512268 19.9017 2.91658 1.10539e-09 -1.87896e-10 -5.01714e-10 1.90352e-09 -3.2112e-10 -8.81671e-10 1.1054e-09 -1.87894e-10 -5.01724e-10 7.73091 5.47488 0.417314 1.10539e-09 -1.87895e-10 -5.01713e-10 2.90554 0.965183 0.102902 1.1054e-09 -1.87896e-10 -5.01715e-10 10.2786 0.731801 0.0259123 1.10539e-09 -1.87897e-10 -5.0171e-10 2.22167 -0.733487 -0.20892 7.25932e-14 1.32951e-13 -2.187e-13 -13.8521 21.1065 -91.3724 13.4616 -57.0988 -128.418 7.2261 -58.0 12.9976 -9.21302e-10 -2.32333e-09 1.4734e-09 -1.65168e-09 -4.00681e-09 2.48206e-09 -9.21297e-10 -2.32331e-09 1.47342e-09 -7.73091 5.47488 -0.417314 -9.21301e-10 -2.32333e-09 1.47341e-09 -2.90554 0.965183 -0.102902 -9.21305e-10 -2.32333e-09 1.4734e-09 -10.2786 0.731801 -0.0259123 -9.21292e-10 -2.32333e-09 1.4734e-09 -2.22167 -0.733487 0.20892 -2.03217e-16 0.0 -3.88251e-19 -2.33013 9.87301 -6.50631 -0.101797 23.7352 0.505757 -2.61432 -21.109 -6.49478 2.03217e-16 0.0 3.88251e-19 11.2375 -6.69749 -7.12046 0.310274 39.7427 -0.737226 -0.254057 -20.7627 -0.106979
